<svg width="90" height="24" viewBox="0 0 90 24" fill="none" xmlns="http://www.w3.org/2000/svg">
<g filter="url(#filter0_d_1_1126)">
<mask id="path-1-outside-1_1_1126" maskUnits="userSpaceOnUse" x="0.930786" y="0.381012" width="89" height="23" fill="black">
<rect fill="white" x="0.930786" y="0.381012" width="89" height="23"/>
<path d="M12.0494 22.6549C10.5702 22.6549 9.18232 22.3719 7.88574 21.8058C6.60743 21.2397 5.4752 20.4544 4.48907 19.45C3.5212 18.4456 2.76334 17.286 2.21549 15.9712C1.6859 14.6381 1.42111 13.2045 1.42111 11.6705C1.42111 10.1548 1.6859 8.73953 2.21549 7.42469C2.76334 6.09159 3.5212 4.93197 4.48907 3.94584C5.45694 2.94145 6.58003 2.15619 7.85835 1.59008C9.15493 1.00571 10.552 0.71352 12.0494 0.71352C13.3825 0.71352 14.5787 0.905268 15.6378 1.28876C16.697 1.654 17.7288 2.25663 18.7332 3.09667C18.8975 3.2245 18.998 3.3706 19.0345 3.53495C19.0893 3.68104 19.0893 3.82714 19.0345 3.97323C18.998 4.11932 18.9341 4.24716 18.8428 4.35673C18.8062 4.5576 18.6967 4.72196 18.514 4.84979C18.3497 4.95936 18.1488 5.01415 17.9114 5.01415C17.674 5.01415 17.4366 4.92284 17.1992 4.74022C16.5053 4.11932 15.7565 3.66278 14.953 3.3706C14.1495 3.06015 13.1816 2.90492 12.0494 2.90492C10.8989 2.90492 9.81235 3.14232 8.7897 3.61713C7.78531 4.07367 6.89961 4.7037 6.13262 5.50721C5.36563 6.31073 4.763 7.24207 4.32472 8.30125C3.9047 9.36043 3.69469 10.4835 3.69469 11.6705C3.69469 12.8941 3.9047 14.0354 4.32472 15.0946C4.763 16.1538 5.36563 17.0851 6.13262 17.8886C6.89961 18.6922 7.78531 19.3222 8.7897 19.7787C9.81235 20.2353 10.8989 20.4635 12.0494 20.4635C13.0173 20.4635 13.9395 20.2992 14.8161 19.9705C15.6926 19.6418 16.5327 19.1761 17.3362 18.5734C17.5918 18.3726 17.8475 18.2904 18.1032 18.3269C18.3771 18.3634 18.6054 18.4821 18.788 18.683C18.9888 18.8656 19.0893 19.1213 19.0893 19.45C19.0893 19.6144 19.0619 19.7605 19.0071 19.8883C18.9523 20.0161 18.8701 20.1531 18.7606 20.2992C17.811 21.121 16.7609 21.7236 15.6104 22.1071C14.4782 22.4723 13.2912 22.6549 12.0494 22.6549ZM29.0176 22.518C27.5384 22.518 26.2235 22.1893 25.0731 21.5318C23.9408 20.8744 23.046 19.9705 22.3886 18.82C21.7312 17.6695 21.4025 16.3638 21.4025 14.9029C21.4025 13.4237 21.7312 12.1088 22.3886 10.9583C23.046 9.80784 23.9408 8.90389 25.0731 8.24647C26.2235 7.58904 27.5384 7.26033 29.0176 7.26033C30.4785 7.26033 31.7751 7.58904 32.9073 8.24647C34.0395 8.90389 34.9344 9.80784 35.5918 10.9583C36.2492 12.1088 36.5871 13.4237 36.6053 14.9029C36.6053 16.3638 36.2766 17.6695 35.6192 18.82C34.9618 19.9705 34.0578 20.8744 32.9073 21.5318C31.7751 22.1893 30.4785 22.518 29.0176 22.518ZM29.0176 20.4361C30.0402 20.4361 30.9533 20.1987 31.7568 19.7239C32.5604 19.2309 33.1904 18.5734 33.6469 17.7517C34.1035 16.9116 34.3317 15.962 34.3317 14.9029C34.3317 13.8437 34.1035 12.8941 33.6469 12.054C33.1904 11.214 32.5604 10.5566 31.7568 10.0818C30.9533 9.5887 30.0402 9.34217 29.0176 9.34217C27.9949 9.34217 27.0727 9.5887 26.2509 10.0818C25.4474 10.5566 24.8083 11.214 24.3335 12.054C23.8769 12.8941 23.6486 13.8437 23.6486 14.9029C23.6486 15.962 23.8769 16.9116 24.3335 17.7517C24.8083 18.5734 25.4474 19.2309 26.2509 19.7239C27.0727 20.1987 27.9949 20.4361 29.0176 20.4361ZM44.0501 22.381C43.2831 22.381 42.6074 22.1801 42.023 21.7784C41.4387 21.3584 40.9821 20.7831 40.6534 20.0526C40.3247 19.3222 40.1604 18.4821 40.1604 17.5325V2.13793C40.1604 1.79096 40.2608 1.51703 40.4617 1.31615C40.6808 1.09701 40.9639 0.987445 41.3108 0.987445C41.6395 0.987445 41.9043 1.09701 42.1052 1.31615C42.3244 1.51703 42.4339 1.79096 42.4339 2.13793V17.5325C42.4339 18.2813 42.58 18.9022 42.8722 19.3952C43.1827 19.87 43.5753 20.1074 44.0501 20.1074H44.7349C45.0271 20.1074 45.2645 20.217 45.4471 20.4361C45.6297 20.637 45.721 20.9018 45.721 21.2305C45.721 21.5775 45.5841 21.8606 45.3101 22.0797C45.0545 22.2806 44.7166 22.381 44.2966 22.381H44.0501ZM51.9415 22.381C51.1745 22.381 50.4988 22.1801 49.9144 21.7784C49.3301 21.3584 48.8735 20.7831 48.5448 20.0526C48.2161 19.3222 48.0518 18.4821 48.0518 17.5325V2.13793C48.0518 1.79096 48.1522 1.51703 48.3531 1.31615C48.5722 1.09701 48.8553 0.987445 49.2022 0.987445C49.531 0.987445 49.7957 1.09701 49.9966 1.31615C50.2158 1.51703 50.3253 1.79096 50.3253 2.13793V17.5325C50.3253 18.2813 50.4714 18.9022 50.7636 19.3952C51.0741 19.87 51.4667 20.1074 51.9415 20.1074H52.6263C52.9185 20.1074 53.1559 20.217 53.3385 20.4361C53.5211 20.637 53.6124 20.9018 53.6124 21.2305C53.6124 21.5775 53.4755 21.8606 53.2016 22.0797C52.9459 22.2806 52.608 22.381 52.188 22.381H51.9415ZM62.1538 22.518C60.7659 22.518 59.5241 22.1893 58.4284 21.5318C57.3327 20.8562 56.4653 19.9431 55.8261 18.7926C55.1869 17.6421 54.8674 16.3455 54.8674 14.9029C54.8674 13.4419 55.1961 12.1362 55.8535 10.9857C56.5292 9.83523 57.4423 8.93128 58.5927 8.27386C59.7432 7.59818 61.0398 7.26033 62.4825 7.26033C63.9069 7.26033 65.1852 7.59818 66.3174 8.27386C67.4679 8.93128 68.3719 9.83523 69.0293 10.9857C69.705 12.1362 70.052 13.4419 70.0702 14.9029L69.1389 15.3685C69.1389 16.7199 68.8284 17.9343 68.2075 19.0117C67.6049 20.0892 66.774 20.9475 65.7148 21.5866C64.6739 22.2075 63.4869 22.518 62.1538 22.518ZM62.4825 20.4361C63.5051 20.4361 64.4091 20.1987 65.1943 19.7239C65.9979 19.2309 66.6279 18.5643 67.0844 17.7243C67.5592 16.8842 67.7966 15.9438 67.7966 14.9029C67.7966 13.8437 67.5592 12.9032 67.0844 12.0814C66.6279 11.2414 65.9979 10.5748 65.1943 10.0818C64.4091 9.5887 63.5051 9.34217 62.4825 9.34217C61.4781 9.34217 60.565 9.5887 59.7432 10.0818C58.9397 10.5748 58.3006 11.2414 57.8258 12.0814C57.3509 12.9032 57.1135 13.8437 57.1135 14.9029C57.1135 15.9438 57.3509 16.8842 57.8258 17.7243C58.3006 18.5643 58.9397 19.2309 59.7432 19.7239C60.565 20.1987 61.4781 20.4361 62.4825 20.4361ZM68.8923 22.381C68.5636 22.381 68.2806 22.2806 68.0432 22.0797C67.824 21.8606 67.7145 21.5775 67.7145 21.2305V16.7108L68.2349 14.3276L70.0702 14.9029V21.2305C70.0702 21.5775 69.9606 21.8606 69.7415 22.0797C69.5224 22.2806 69.2393 22.381 68.8923 22.381ZM81.7334 22.518C80.309 22.518 79.0307 22.1893 77.8985 21.5318C76.7663 20.8562 75.8623 19.9522 75.1866 18.82C74.5292 17.6695 74.1914 16.382 74.1731 14.9576V2.16532C74.1731 1.80009 74.2735 1.51703 74.4744 1.31615C74.6936 1.09701 74.9858 0.987445 75.351 0.987445C75.698 0.987445 75.9719 1.09701 76.1728 1.31615C76.3919 1.51703 76.5015 1.80009 76.5015 2.16532V9.99959C77.1041 9.17781 77.8894 8.52039 78.8572 8.02732C79.8251 7.516 80.9025 7.26033 82.0895 7.26033C83.4774 7.26033 84.7192 7.59818 85.8149 8.27386C86.9106 8.93128 87.7689 9.83523 88.3898 10.9857C89.029 12.1362 89.3486 13.4328 89.3486 14.8755C89.3486 16.3364 89.0107 17.6421 88.335 18.7926C87.6776 19.9431 86.7737 20.8562 85.6232 21.5318C84.491 22.1893 83.1944 22.518 81.7334 22.518ZM81.7334 20.4361C82.7561 20.4361 83.6692 20.1896 84.4727 19.6965C85.2945 19.2035 85.9336 18.5461 86.3902 17.7243C86.865 16.8842 87.1024 15.9346 87.1024 14.8755C87.1024 13.8345 86.865 12.8941 86.3902 12.054C85.9336 11.214 85.2945 10.5566 84.4727 10.0818C83.6692 9.5887 82.7561 9.34217 81.7334 9.34217C80.7473 9.34217 79.8434 9.5887 79.0216 10.0818C78.2181 10.5566 77.588 11.214 77.1315 12.054C76.675 12.8941 76.4467 13.8345 76.4467 14.8755C76.4467 15.9346 76.675 16.8842 77.1315 17.7243C77.588 18.5461 78.2181 19.2035 79.0216 19.6965C79.8434 20.1896 80.7473 20.4361 81.7334 20.4361Z"/>
</mask>
<path d="M12.0494 22.6549C10.5702 22.6549 9.18232 22.3719 7.88574 21.8058C6.60743 21.2397 5.4752 20.4544 4.48907 19.45C3.5212 18.4456 2.76334 17.286 2.21549 15.9712C1.6859 14.6381 1.42111 13.2045 1.42111 11.6705C1.42111 10.1548 1.6859 8.73953 2.21549 7.42469C2.76334 6.09159 3.5212 4.93197 4.48907 3.94584C5.45694 2.94145 6.58003 2.15619 7.85835 1.59008C9.15493 1.00571 10.552 0.71352 12.0494 0.71352C13.3825 0.71352 14.5787 0.905268 15.6378 1.28876C16.697 1.654 17.7288 2.25663 18.7332 3.09667C18.8975 3.2245 18.998 3.3706 19.0345 3.53495C19.0893 3.68104 19.0893 3.82714 19.0345 3.97323C18.998 4.11932 18.9341 4.24716 18.8428 4.35673C18.8062 4.5576 18.6967 4.72196 18.514 4.84979C18.3497 4.95936 18.1488 5.01415 17.9114 5.01415C17.674 5.01415 17.4366 4.92284 17.1992 4.74022C16.5053 4.11932 15.7565 3.66278 14.953 3.3706C14.1495 3.06015 13.1816 2.90492 12.0494 2.90492C10.8989 2.90492 9.81235 3.14232 8.7897 3.61713C7.78531 4.07367 6.89961 4.7037 6.13262 5.50721C5.36563 6.31073 4.763 7.24207 4.32472 8.30125C3.9047 9.36043 3.69469 10.4835 3.69469 11.6705C3.69469 12.8941 3.9047 14.0354 4.32472 15.0946C4.763 16.1538 5.36563 17.0851 6.13262 17.8886C6.89961 18.6922 7.78531 19.3222 8.7897 19.7787C9.81235 20.2353 10.8989 20.4635 12.0494 20.4635C13.0173 20.4635 13.9395 20.2992 14.8161 19.9705C15.6926 19.6418 16.5327 19.1761 17.3362 18.5734C17.5918 18.3726 17.8475 18.2904 18.1032 18.3269C18.3771 18.3634 18.6054 18.4821 18.788 18.683C18.9888 18.8656 19.0893 19.1213 19.0893 19.45C19.0893 19.6144 19.0619 19.7605 19.0071 19.8883C18.9523 20.0161 18.8701 20.1531 18.7606 20.2992C17.811 21.121 16.7609 21.7236 15.6104 22.1071C14.4782 22.4723 13.2912 22.6549 12.0494 22.6549ZM29.0176 22.518C27.5384 22.518 26.2235 22.1893 25.0731 21.5318C23.9408 20.8744 23.046 19.9705 22.3886 18.82C21.7312 17.6695 21.4025 16.3638 21.4025 14.9029C21.4025 13.4237 21.7312 12.1088 22.3886 10.9583C23.046 9.80784 23.9408 8.90389 25.0731 8.24647C26.2235 7.58904 27.5384 7.26033 29.0176 7.26033C30.4785 7.26033 31.7751 7.58904 32.9073 8.24647C34.0395 8.90389 34.9344 9.80784 35.5918 10.9583C36.2492 12.1088 36.5871 13.4237 36.6053 14.9029C36.6053 16.3638 36.2766 17.6695 35.6192 18.82C34.9618 19.9705 34.0578 20.8744 32.9073 21.5318C31.7751 22.1893 30.4785 22.518 29.0176 22.518ZM29.0176 20.4361C30.0402 20.4361 30.9533 20.1987 31.7568 19.7239C32.5604 19.2309 33.1904 18.5734 33.6469 17.7517C34.1035 16.9116 34.3317 15.962 34.3317 14.9029C34.3317 13.8437 34.1035 12.8941 33.6469 12.054C33.1904 11.214 32.5604 10.5566 31.7568 10.0818C30.9533 9.5887 30.0402 9.34217 29.0176 9.34217C27.9949 9.34217 27.0727 9.5887 26.2509 10.0818C25.4474 10.5566 24.8083 11.214 24.3335 12.054C23.8769 12.8941 23.6486 13.8437 23.6486 14.9029C23.6486 15.962 23.8769 16.9116 24.3335 17.7517C24.8083 18.5734 25.4474 19.2309 26.2509 19.7239C27.0727 20.1987 27.9949 20.4361 29.0176 20.4361ZM44.0501 22.381C43.2831 22.381 42.6074 22.1801 42.023 21.7784C41.4387 21.3584 40.9821 20.7831 40.6534 20.0526C40.3247 19.3222 40.1604 18.4821 40.1604 17.5325V2.13793C40.1604 1.79096 40.2608 1.51703 40.4617 1.31615C40.6808 1.09701 40.9639 0.987445 41.3108 0.987445C41.6395 0.987445 41.9043 1.09701 42.1052 1.31615C42.3244 1.51703 42.4339 1.79096 42.4339 2.13793V17.5325C42.4339 18.2813 42.58 18.9022 42.8722 19.3952C43.1827 19.87 43.5753 20.1074 44.0501 20.1074H44.7349C45.0271 20.1074 45.2645 20.217 45.4471 20.4361C45.6297 20.637 45.721 20.9018 45.721 21.2305C45.721 21.5775 45.5841 21.8606 45.3101 22.0797C45.0545 22.2806 44.7166 22.381 44.2966 22.381H44.0501ZM51.9415 22.381C51.1745 22.381 50.4988 22.1801 49.9144 21.7784C49.3301 21.3584 48.8735 20.7831 48.5448 20.0526C48.2161 19.3222 48.0518 18.4821 48.0518 17.5325V2.13793C48.0518 1.79096 48.1522 1.51703 48.3531 1.31615C48.5722 1.09701 48.8553 0.987445 49.2022 0.987445C49.531 0.987445 49.7957 1.09701 49.9966 1.31615C50.2158 1.51703 50.3253 1.79096 50.3253 2.13793V17.5325C50.3253 18.2813 50.4714 18.9022 50.7636 19.3952C51.0741 19.87 51.4667 20.1074 51.9415 20.1074H52.6263C52.9185 20.1074 53.1559 20.217 53.3385 20.4361C53.5211 20.637 53.6124 20.9018 53.6124 21.2305C53.6124 21.5775 53.4755 21.8606 53.2016 22.0797C52.9459 22.2806 52.608 22.381 52.188 22.381H51.9415ZM62.1538 22.518C60.7659 22.518 59.5241 22.1893 58.4284 21.5318C57.3327 20.8562 56.4653 19.9431 55.8261 18.7926C55.1869 17.6421 54.8674 16.3455 54.8674 14.9029C54.8674 13.4419 55.1961 12.1362 55.8535 10.9857C56.5292 9.83523 57.4423 8.93128 58.5927 8.27386C59.7432 7.59818 61.0398 7.26033 62.4825 7.26033C63.9069 7.26033 65.1852 7.59818 66.3174 8.27386C67.4679 8.93128 68.3719 9.83523 69.0293 10.9857C69.705 12.1362 70.052 13.4419 70.0702 14.9029L69.1389 15.3685C69.1389 16.7199 68.8284 17.9343 68.2075 19.0117C67.6049 20.0892 66.774 20.9475 65.7148 21.5866C64.6739 22.2075 63.4869 22.518 62.1538 22.518ZM62.4825 20.4361C63.5051 20.4361 64.4091 20.1987 65.1943 19.7239C65.9979 19.2309 66.6279 18.5643 67.0844 17.7243C67.5592 16.8842 67.7966 15.9438 67.7966 14.9029C67.7966 13.8437 67.5592 12.9032 67.0844 12.0814C66.6279 11.2414 65.9979 10.5748 65.1943 10.0818C64.4091 9.5887 63.5051 9.34217 62.4825 9.34217C61.4781 9.34217 60.565 9.5887 59.7432 10.0818C58.9397 10.5748 58.3006 11.2414 57.8258 12.0814C57.3509 12.9032 57.1135 13.8437 57.1135 14.9029C57.1135 15.9438 57.3509 16.8842 57.8258 17.7243C58.3006 18.5643 58.9397 19.2309 59.7432 19.7239C60.565 20.1987 61.4781 20.4361 62.4825 20.4361ZM68.8923 22.381C68.5636 22.381 68.2806 22.2806 68.0432 22.0797C67.824 21.8606 67.7145 21.5775 67.7145 21.2305V16.7108L68.2349 14.3276L70.0702 14.9029V21.2305C70.0702 21.5775 69.9606 21.8606 69.7415 22.0797C69.5224 22.2806 69.2393 22.381 68.8923 22.381ZM81.7334 22.518C80.309 22.518 79.0307 22.1893 77.8985 21.5318C76.7663 20.8562 75.8623 19.9522 75.1866 18.82C74.5292 17.6695 74.1914 16.382 74.1731 14.9576V2.16532C74.1731 1.80009 74.2735 1.51703 74.4744 1.31615C74.6936 1.09701 74.9858 0.987445 75.351 0.987445C75.698 0.987445 75.9719 1.09701 76.1728 1.31615C76.3919 1.51703 76.5015 1.80009 76.5015 2.16532V9.99959C77.1041 9.17781 77.8894 8.52039 78.8572 8.02732C79.8251 7.516 80.9025 7.26033 82.0895 7.26033C83.4774 7.26033 84.7192 7.59818 85.8149 8.27386C86.9106 8.93128 87.7689 9.83523 88.3898 10.9857C89.029 12.1362 89.3486 13.4328 89.3486 14.8755C89.3486 16.3364 89.0107 17.6421 88.335 18.7926C87.6776 19.9431 86.7737 20.8562 85.6232 21.5318C84.491 22.1893 83.1944 22.518 81.7334 22.518ZM81.7334 20.4361C82.7561 20.4361 83.6692 20.1896 84.4727 19.6965C85.2945 19.2035 85.9336 18.5461 86.3902 17.7243C86.865 16.8842 87.1024 15.9346 87.1024 14.8755C87.1024 13.8345 86.865 12.8941 86.3902 12.054C85.9336 11.214 85.2945 10.5566 84.4727 10.0818C83.6692 9.5887 82.7561 9.34217 81.7334 9.34217C80.7473 9.34217 79.8434 9.5887 79.0216 10.0818C78.2181 10.5566 77.588 11.214 77.1315 12.054C76.675 12.8941 76.4467 13.8345 76.4467 14.8755C76.4467 15.9346 76.675 16.8842 77.1315 17.7243C77.588 18.5461 78.2181 19.2035 79.0216 19.6965C79.8434 20.1896 80.7473 20.4361 81.7334 20.4361Z" fill="#9A54BC"/>
<path d="M7.88575 21.8058L7.83464 21.9212L7.83525 21.9214L7.88575 21.8058ZM4.48907 19.45L4.39819 19.5376L4.39902 19.5384L4.48907 19.45ZM2.21549 15.9712L2.09819 16.0178L2.099 16.0197L2.21549 15.9712ZM2.21549 7.42469L2.09876 7.37672L2.09843 7.37754L2.21549 7.42469ZM4.48907 3.94584L4.57914 4.03424L4.57994 4.03341L4.48907 3.94584ZM7.85835 1.59008L7.90945 1.70547L7.91021 1.70513L7.85835 1.59008ZM15.6378 1.28876L15.5949 1.40744L15.5967 1.40807L15.6378 1.28876ZM18.7332 3.09667L18.6522 3.19353L18.6557 3.19628L18.7332 3.09667ZM19.0345 3.53495L18.9113 3.56233L18.9132 3.57097L18.9163 3.57926L19.0345 3.53495ZM19.0345 3.97323L18.9163 3.92892L18.9138 3.93565L18.9121 3.94262L19.0345 3.97323ZM18.8428 4.35673L18.7458 4.27594L18.7245 4.30146L18.7186 4.33415L18.8428 4.35673ZM18.514 4.84979L18.5841 4.95482L18.5864 4.95318L18.514 4.84979ZM17.1992 4.74022L17.1148 4.83453L17.1223 4.84025L17.1992 4.74022ZM14.953 3.3706L14.9075 3.48834L14.9099 3.4892L14.953 3.3706ZM8.7897 3.61713L8.84192 3.73202L8.84284 3.73159L8.7897 3.61713ZM6.13262 5.50721L6.04134 5.42007L6.13262 5.50721ZM4.32472 8.30125L4.20809 8.25299L4.2074 8.25473L4.32472 8.30125ZM4.32472 15.0946L4.20739 15.1411L4.20811 15.1429L4.32472 15.0946ZM6.13262 17.8886L6.22391 17.8015L6.13262 17.8886ZM8.7897 19.7787L8.73748 19.8936L8.73825 19.894L8.7897 19.7787ZM14.8161 19.9705L14.8604 20.0886L14.8161 19.9705ZM17.3362 18.5735L17.4119 18.6744L17.4141 18.6727L17.3362 18.5735ZM18.1032 18.3269L18.0853 18.4519L18.0865 18.452L18.1032 18.3269ZM18.788 18.683L18.6942 18.7683L18.7031 18.7764L18.788 18.683ZM19.0071 19.8883L19.1231 19.938L19.0071 19.8883ZM18.7606 20.2992L18.8432 20.3946L18.8534 20.3857L18.8615 20.3749L18.7606 20.2992ZM15.6104 22.1071L15.6492 22.2272L15.6503 22.2268L15.6104 22.1071ZM12.0494 22.5287C10.5868 22.5287 9.21617 22.249 7.93624 21.6901L7.83525 21.9214C9.14848 22.4948 10.5536 22.7811 12.0494 22.7811V22.5287ZM7.93685 21.6904C6.6732 21.1308 5.55417 20.3547 4.57912 19.3616L4.39902 19.5384C5.39624 20.5541 6.54165 21.3485 7.83464 21.9212L7.93685 21.6904ZM4.57994 19.3624C3.6232 18.3696 2.87393 17.2233 2.33198 15.9226L2.099 16.0197C2.65276 17.3487 3.4192 18.5216 4.3982 19.5376L4.57994 19.3624ZM2.33277 15.9246C1.80947 14.6073 1.54731 13.1897 1.54731 11.6705H1.29491C1.29491 13.2194 1.56233 14.6688 2.09821 16.0178L2.33277 15.9246ZM1.54731 11.6705C1.54731 10.1698 1.80941 8.77068 2.33255 7.47184L2.09843 7.37754C1.5624 8.70838 1.29491 10.1398 1.29491 11.6705H1.54731ZM2.33222 7.47266C2.87415 6.15397 3.62317 5.00824 4.57914 4.03424L4.399 3.85744C3.41923 4.8557 2.65254 6.02921 2.09876 7.37672L2.33222 7.47266ZM4.57994 4.03341C5.53645 3.0408 6.64603 2.26498 7.90945 1.70547L7.80725 1.47469C6.51404 2.0474 5.37743 2.84209 4.3982 3.85827L4.57994 4.03341ZM7.91021 1.70513C9.18963 1.12849 10.5689 0.839719 12.0494 0.839719V0.587322C10.535 0.587322 9.12024 0.88292 7.8065 1.47503L7.91021 1.70513ZM12.0494 0.839719C13.3705 0.839719 14.5517 1.02974 15.5949 1.40742L15.6808 1.1701C14.6056 0.780799 13.3945 0.587322 12.0494 0.587322V0.839719ZM15.5967 1.40807C16.6391 1.76752 17.6577 2.36166 18.6522 3.19347L18.8142 2.99987C17.7999 2.1516 16.7549 1.54047 15.679 1.16946L15.5967 1.40807ZM18.6557 3.19628C18.8025 3.31049 18.8826 3.43293 18.9113 3.56233L19.1577 3.50757C19.1134 3.30826 18.9925 3.13851 18.8107 2.99705L18.6557 3.19628ZM18.9163 3.57926C18.9604 3.69679 18.9604 3.8114 18.9163 3.92892L19.1527 4.01754C19.2182 3.84288 19.2182 3.6653 19.1527 3.49064L18.9163 3.57926ZM18.9121 3.94262C18.8799 4.07134 18.8243 4.18177 18.7458 4.27594L18.9397 4.43752C19.0439 4.31254 19.1161 4.16731 19.1569 4.00384L18.9121 3.94262ZM18.7186 4.33415C18.6886 4.49916 18.5998 4.63571 18.4417 4.74641L18.5864 4.95318C18.7935 4.80821 18.9239 4.61605 18.9669 4.3793L18.7186 4.33415ZM18.444 4.74479C18.3043 4.83796 18.129 4.88795 17.9114 4.88795V5.14035C18.1686 5.14035 18.3951 5.08077 18.584 4.95479L18.444 4.74479ZM17.9114 4.88795C17.7084 4.88795 17.4974 4.81035 17.2762 4.64019L17.1223 4.84025C17.3759 5.03533 17.6396 5.14035 17.9114 5.14035V4.88795ZM17.2834 4.64617C16.5785 4.01551 15.8161 3.55015 14.9961 3.252L14.9099 3.4892C15.697 3.77542 16.432 4.22314 17.1151 4.83427L17.2834 4.64617ZM14.9985 3.25288C14.1767 2.93537 13.1926 2.77872 12.0494 2.77872V3.03112C13.1707 3.03112 14.1223 3.18493 14.9075 3.48831L14.9985 3.25288ZM12.0494 2.77872C10.881 2.77872 9.77621 3.01997 8.73655 3.50266L8.84284 3.73159C9.8485 3.26468 10.9169 3.03112 12.0494 3.03112V2.77872ZM8.73748 3.50224C7.71831 3.9655 6.81938 4.60498 6.04134 5.42007L6.22391 5.59435C6.97985 4.80241 7.8523 4.18184 8.84192 3.73201L8.73748 3.50224ZM6.04134 5.42007C5.26323 6.23524 4.65216 7.17987 4.20811 8.253L4.44133 8.3495C4.87383 7.30427 5.46803 6.38622 6.22391 5.59435L6.04134 5.42007ZM4.2074 8.25473C3.78127 9.32933 3.56849 10.4683 3.56849 11.6705H3.82089C3.82089 10.4988 4.02812 9.39153 4.44203 8.34777L4.2074 8.25473ZM3.56849 11.6705C3.56849 12.9088 3.78109 14.0661 4.2074 15.1411L4.44203 15.0481C4.0283 14.0048 3.82089 12.8793 3.82089 11.6705H3.56849ZM4.20811 15.1429C4.65216 16.216 5.26323 17.1606 6.04134 17.9758L6.22391 17.8015C5.46803 17.0096 4.87383 16.0916 4.44133 15.0463L4.20811 15.1429ZM6.04134 17.9758C6.81938 18.7909 7.71831 19.4303 8.73748 19.8936L8.84192 19.6638C7.8523 19.214 6.97985 18.5934 6.22391 17.8015L6.04134 17.9758ZM8.73825 19.894C9.77754 20.3579 10.8817 20.5897 12.0494 20.5897V20.3373C10.9162 20.3373 9.84716 20.1126 8.84114 19.6635L8.73825 19.894ZM12.0494 20.5897C13.0319 20.5897 13.9692 20.4228 14.8604 20.0886L14.7717 19.8523C13.9098 20.1755 13.0027 20.3373 12.0494 20.3373V20.5897ZM14.8604 20.0886C15.7489 19.7554 16.5995 19.2837 17.4119 18.6744L17.2604 18.4725C16.4658 19.0685 15.6363 19.5281 14.7717 19.8523L14.8604 20.0886ZM17.4141 18.6727C17.6502 18.4872 17.8721 18.4214 18.0853 18.4518L18.121 18.202C17.8229 18.1594 17.5335 18.2579 17.2582 18.4742L17.4141 18.6727ZM18.0865 18.452C18.3315 18.4847 18.5324 18.5895 18.6946 18.7679L18.8814 18.5981C18.6783 18.3748 18.4227 18.2422 18.1198 18.2018L18.0865 18.452ZM18.7031 18.7764C18.8722 18.9301 18.9631 19.1487 18.9631 19.45H19.2155C19.2155 19.0939 19.1055 18.8011 18.8729 18.5896L18.7031 18.7764ZM18.9631 19.45C18.9631 19.6003 18.9381 19.729 18.8911 19.8386L19.1231 19.938C19.1857 19.7919 19.2155 19.6284 19.2155 19.45H18.9631ZM18.8911 19.8386C18.8413 19.9548 18.7649 20.0831 18.6596 20.2235L18.8615 20.3749C18.9754 20.2231 19.0634 20.0774 19.1231 19.938L18.8911 19.8386ZM18.678 20.2038C17.7404 21.0151 16.7048 21.6093 15.5705 21.9874L15.6503 22.2268C16.8171 21.8379 17.8815 21.2268 18.8432 20.3946L18.678 20.2038ZM15.5717 21.987C14.4525 22.348 13.2786 22.5287 12.0494 22.5287V22.7811C13.3038 22.7811 14.5039 22.5966 15.6492 22.2272L15.5717 21.987ZM25.0731 21.5318L25.0097 21.641L25.0104 21.6414L25.0731 21.5318ZM22.3886 18.82L22.4982 18.7574L22.3886 18.82ZM22.3886 10.9583L22.279 10.8957L22.3886 10.9583ZM25.0731 8.24647L25.0104 8.13689L25.0097 8.13733L25.0731 8.24647ZM32.9073 8.24647L32.844 8.3556L32.9073 8.24647ZM35.5918 10.9583L35.7014 10.8957L35.5918 10.9583ZM36.6053 14.9029H36.7315L36.7315 14.9013L36.6053 14.9029ZM35.6192 18.82L35.5096 18.7574L35.6192 18.82ZM32.9073 21.5318L32.8447 21.4223L32.844 21.4227L32.9073 21.5318ZM31.7568 19.7239L31.821 19.8326L31.8228 19.8315L31.7568 19.7239ZM33.6469 17.7517L33.7572 17.813L33.7578 17.8119L33.6469 17.7517ZM33.6469 12.054L33.536 12.1143L33.6469 12.054ZM31.7568 10.0818L31.6908 10.1893L31.6926 10.1904L31.7568 10.0818ZM26.2509 10.0818L26.3151 10.1904L26.3159 10.19L26.2509 10.0818ZM24.3335 12.054L24.2236 11.9919L24.2226 11.9938L24.3335 12.054ZM24.3335 17.7517L24.2225 17.812L24.2242 17.8148L24.3335 17.7517ZM26.2509 19.7239L26.1849 19.8315L26.1878 19.8332L26.2509 19.7239ZM29.0176 22.3918C27.5577 22.3918 26.2649 22.0676 25.1357 21.4223L25.0104 21.6414C26.1821 22.311 27.519 22.6442 29.0176 22.6442V22.3918ZM25.1364 21.4227C24.0237 20.7766 23.1447 19.8888 22.4982 18.7574L22.279 18.8826C22.9473 20.0521 23.858 20.9722 25.0097 21.641L25.1364 21.4227ZM22.4982 18.7574C21.8527 17.6279 21.5287 16.3441 21.5287 14.9029H21.2763C21.2763 16.3834 21.6096 17.7111 22.279 18.8826L22.4982 18.7574ZM21.5287 14.9029C21.5287 13.443 21.8529 12.1502 22.4982 11.0209L22.279 10.8957C21.6095 12.0674 21.2763 13.4043 21.2763 14.9029H21.5287ZM22.4982 11.0209C23.1447 9.88951 24.0237 9.00171 25.1364 8.3556L25.0097 8.13733C23.858 8.80606 22.9473 9.72617 22.279 10.8957L22.4982 11.0209ZM25.1357 8.35604C26.2649 7.71074 27.5577 7.38653 29.0176 7.38653V7.13414C27.519 7.13414 26.1821 7.46735 25.0104 8.13689L25.1357 8.35604ZM29.0176 7.38653C30.4589 7.38653 31.7331 7.71061 32.844 8.3556L32.9707 8.13733C31.8171 7.46748 30.4981 7.13414 29.0176 7.13414V7.38653ZM32.844 8.3556C33.9567 9.00171 34.8357 9.88951 35.4822 11.0209L35.7014 10.8957C35.0331 9.72617 34.1224 8.80606 32.9707 8.13733L32.844 8.3556ZM35.4822 11.0209C36.1278 12.1507 36.4611 13.4441 36.4791 14.9044L36.7315 14.9013C36.713 13.4032 36.3706 12.0669 35.7014 10.8957L35.4822 11.0209ZM36.4791 14.9029C36.4791 16.3441 36.155 17.6279 35.5096 18.7574L35.7288 18.8826C36.3982 17.7111 36.7315 16.3834 36.7315 14.9029H36.4791ZM35.5096 18.7574C34.8634 19.8883 33.9756 20.776 32.8447 21.4223L32.9699 21.6414C34.14 20.9728 35.0602 20.0526 35.7288 18.8826L35.5096 18.7574ZM32.844 21.4227C31.7331 22.0677 30.4589 22.3918 29.0176 22.3918V22.6442C30.4981 22.6442 31.8171 22.3108 32.9707 21.641L32.844 21.4227ZM29.0176 20.5623C30.0606 20.5623 30.9962 20.32 31.821 19.8326L31.6926 19.6153C30.9104 20.0775 30.0199 20.3099 29.0176 20.3099V20.5623ZM31.8228 19.8315C32.6448 19.3271 33.2901 18.6538 33.7572 17.813L33.5366 17.6904C33.0906 18.4931 32.4759 19.1346 31.6908 19.6164L31.8228 19.8315ZM33.7578 17.8119C34.2254 16.9515 34.4579 15.9808 34.4579 14.9029H34.2055C34.2055 15.9433 33.9815 16.8718 33.536 17.6914L33.7578 17.8119ZM34.4579 14.9029C34.4579 13.8249 34.2254 12.8542 33.7578 11.9938L33.536 12.1143C33.9815 12.9339 34.2055 13.8624 34.2055 14.9029H34.4579ZM33.7578 11.9938C33.2906 11.1342 32.6447 10.4598 31.821 9.97312L31.6926 10.1904C32.476 10.6533 33.0901 11.2938 33.536 12.1143L33.7578 11.9938ZM31.8228 9.9742C30.9978 9.46792 30.0615 9.21597 29.0176 9.21597V9.46837C30.019 9.46837 30.9089 9.70948 31.6908 10.1893L31.8228 9.9742ZM29.0176 9.21597C27.9737 9.21597 27.0287 9.46792 26.186 9.97355L26.3159 10.19C27.1167 9.70948 28.0162 9.46837 29.0176 9.46837V9.21597ZM26.1867 9.97312C25.3635 10.4596 24.7089 11.1333 24.2236 11.9919L24.4433 12.1161C24.9076 11.2947 25.5313 10.6536 26.3151 10.1904L26.1867 9.97312ZM24.2226 11.9938C23.7549 12.8542 23.5224 13.8249 23.5224 14.9029H23.7748C23.7748 13.8624 23.9989 12.9339 24.4443 12.1143L24.2226 11.9938ZM23.5224 14.9029C23.5224 15.9808 23.7549 16.9515 24.2226 17.8119L24.4443 17.6914C23.9989 16.8718 23.7748 15.9433 23.7748 14.9029H23.5224ZM24.2242 17.8148C24.7094 18.6546 25.3634 19.3274 26.1849 19.8315L26.3169 19.6164C25.5314 19.1344 24.9071 18.4923 24.4427 17.6885L24.2242 17.8148ZM26.1878 19.8332C27.0303 20.32 27.9745 20.5623 29.0176 20.5623V20.3099C28.0153 20.3099 27.1152 20.0775 26.3141 19.6147L26.1878 19.8332ZM42.023 21.7784L41.9494 21.8809L41.9515 21.8824L42.023 21.7784ZM40.6534 20.0526L40.7685 20.0009L40.6534 20.0526ZM40.4617 1.31615L40.3724 1.22692V1.22692L40.4617 1.31615ZM42.1052 1.31615L42.0118 1.40175L42.0199 1.40918L42.1052 1.31615ZM42.8722 19.3952L42.7635 19.4596L42.7666 19.4643L42.8722 19.3952ZM45.4471 20.4361L45.3501 20.517L45.3537 20.521L45.4471 20.4361ZM45.3101 22.0797L45.3881 22.1789L45.389 22.1782L45.3101 22.0797ZM44.0501 22.2548C43.3064 22.2548 42.6561 22.0605 42.0945 21.6744L41.9515 21.8824C42.5587 22.2998 43.2598 22.5072 44.0501 22.5072V22.2548ZM42.0967 21.6759C41.5323 21.2703 41.0892 20.7134 40.7685 20.0009L40.5383 20.1044C40.8751 20.8528 41.345 21.4465 41.9494 21.8809L42.0967 21.6759ZM40.7685 20.0009C40.4483 19.2894 40.2865 18.4676 40.2865 17.5325H40.0342C40.0342 18.4967 40.2011 19.3549 40.5383 20.1044L40.7685 20.0009ZM40.2865 17.5325V2.13793H40.0342V17.5325H40.2865ZM40.2865 2.13793C40.2865 1.81654 40.3787 1.57756 40.5509 1.40539L40.3724 1.22692C40.1428 1.45651 40.0342 1.76538 40.0342 2.13793H40.2865ZM40.5509 1.40539C40.7435 1.21284 40.993 1.11364 41.3108 1.11364V0.861247C40.9348 0.861247 40.6182 0.981188 40.3724 1.22692L40.5509 1.40539ZM41.3108 1.11364C41.6083 1.11364 41.8379 1.21128 42.0122 1.40143L42.1982 1.23088C41.9708 0.982746 41.6708 0.861247 41.3108 0.861247V1.11364ZM42.0199 1.40918C42.2086 1.58211 42.3077 1.81986 42.3077 2.13793H42.5601C42.5601 1.76206 42.4401 1.45196 42.1905 1.22313L42.0199 1.40918ZM42.3077 2.13793V17.5325H42.5601V2.13793H42.3077ZM42.3077 17.5325C42.3077 18.2971 42.4569 18.9419 42.7636 19.4596L42.9808 19.3309C42.7032 18.8624 42.5601 18.2654 42.5601 17.5325H42.3077ZM42.7666 19.4643C43.0951 19.9667 43.5239 20.2336 44.0501 20.2336V19.9812C43.6266 19.9812 43.2702 19.7733 42.9778 19.3262L42.7666 19.4643ZM44.0501 20.2336H44.7349V19.9812H44.0501V20.2336ZM44.7349 20.2336C44.9907 20.2336 45.1922 20.3274 45.3502 20.5169L45.5441 20.3554C45.3368 20.1066 45.0635 19.9812 44.7349 19.9812V20.2336ZM45.3537 20.521C45.511 20.694 45.5948 20.9262 45.5948 21.2305H45.8472C45.8472 20.8774 45.7485 20.58 45.5405 20.3513L45.3537 20.521ZM45.5948 21.2305C45.5948 21.5387 45.4757 21.7857 45.2313 21.9811L45.389 22.1782C45.6925 21.9355 45.8472 21.6163 45.8472 21.2305H45.5948ZM45.2322 21.9805C45.0045 22.1593 44.6967 22.2548 44.2966 22.2548V22.5072C44.7366 22.5072 45.1045 22.4018 45.3881 22.1789L45.2322 21.9805ZM44.2966 22.2548H44.0501V22.5072H44.2966V22.2548ZM49.9144 21.7784L49.8408 21.8809L49.843 21.8824L49.9144 21.7784ZM48.5448 20.0526L48.6599 20.0009L48.5448 20.0526ZM48.3531 1.31615L48.2638 1.22692V1.22692L48.3531 1.31615ZM49.9966 1.31615L49.9032 1.40175L49.9114 1.40918L49.9966 1.31615ZM50.7636 19.3952L50.6549 19.4596L50.658 19.4643L50.7636 19.3952ZM53.3385 20.4361L53.2415 20.517L53.2451 20.521L53.3385 20.4361ZM53.2015 22.0797L53.2795 22.1789L53.2804 22.1782L53.2015 22.0797ZM51.9415 22.2548C51.1978 22.2548 50.5475 22.0605 49.9859 21.6744L49.843 21.8824C50.4501 22.2998 51.1512 22.5072 51.9415 22.5072V22.2548ZM49.9881 21.6759C49.4237 21.2703 48.9806 20.7134 48.6599 20.0009L48.4297 20.1044C48.7665 20.8528 49.2364 21.4465 49.8408 21.8809L49.9881 21.6759ZM48.6599 20.0009C48.3398 19.2894 48.178 18.4676 48.178 17.5325H47.9256C47.9256 18.4967 48.0925 19.3549 48.4297 20.1044L48.6599 20.0009ZM48.178 17.5325V2.13793H47.9256V17.5325H48.178ZM48.178 2.13793C48.178 1.81654 48.2701 1.57756 48.4423 1.40539L48.2638 1.22692C48.0342 1.45651 47.9256 1.76538 47.9256 2.13793H48.178ZM48.4423 1.40539C48.6349 1.21284 48.8844 1.11364 49.2022 1.11364V0.861247C48.8262 0.861247 48.5096 0.981188 48.2638 1.22692L48.4423 1.40539ZM49.2022 1.11364C49.4997 1.11364 49.7293 1.21128 49.9036 1.40143L50.0897 1.23088C49.8622 0.982746 49.5622 0.861247 49.2022 0.861247V1.11364ZM49.9114 1.40918C50.1 1.58211 50.1991 1.81986 50.1991 2.13793H50.4515C50.4515 1.76206 50.3315 1.45196 50.0819 1.22313L49.9114 1.40918ZM50.1991 2.13793V17.5325H50.4515V2.13793H50.1991ZM50.1991 17.5325C50.1991 18.2971 50.3483 18.9419 50.655 19.4596L50.8722 19.3309C50.5946 18.8624 50.4515 18.2654 50.4515 17.5325H50.1991ZM50.658 19.4643C50.9865 19.9667 51.4153 20.2336 51.9415 20.2336V19.9812C51.5181 19.9812 51.1616 19.7733 50.8692 19.3262L50.658 19.4643ZM51.9415 20.2336H52.6263V19.9812H51.9415V20.2336ZM52.6263 20.2336C52.8821 20.2336 53.0836 20.3274 53.2416 20.5169L53.4355 20.3554C53.2282 20.1066 52.9549 19.9812 52.6263 19.9812V20.2336ZM53.2451 20.521C53.4024 20.694 53.4862 20.9262 53.4862 21.2305H53.7386C53.7386 20.8774 53.6399 20.58 53.4319 20.3513L53.2451 20.521ZM53.4862 21.2305C53.4862 21.5387 53.3671 21.7857 53.1227 21.9811L53.2804 22.1782C53.5839 21.9355 53.7386 21.6163 53.7386 21.2305H53.4862ZM53.1236 21.9805C52.8959 22.1593 52.5881 22.2548 52.188 22.2548V22.5072C52.628 22.5072 52.9959 22.4018 53.2795 22.1789L53.1236 21.9805ZM52.188 22.2548H51.9415V22.5072H52.188V22.2548ZM58.4284 21.5318L58.3621 21.6393L58.3635 21.6401L58.4284 21.5318ZM55.8261 18.7926L55.7158 18.8539L55.8261 18.7926ZM55.8535 10.9857L55.7447 10.9218L55.7439 10.9231L55.8535 10.9857ZM58.5927 8.27386L58.6554 8.38344L58.6567 8.38268L58.5927 8.27386ZM66.3174 8.27386L66.2528 8.38225L66.2548 8.38343L66.3174 8.27386ZM69.0293 10.9857L68.9197 11.0483L68.9205 11.0496L69.0293 10.9857ZM70.0702 14.9029L70.1267 15.0157L70.1974 14.9804L70.1964 14.9013L70.0702 14.9029ZM69.1389 15.3685L69.0824 15.2556L69.0127 15.2905V15.3685H69.1389ZM68.2075 19.0117L68.0982 18.9487L68.0974 18.9501L68.2075 19.0117ZM65.7148 21.5866L65.7794 21.695L65.78 21.6947L65.7148 21.5866ZM65.1943 19.7239L65.2596 19.8319L65.2603 19.8315L65.1943 19.7239ZM67.0844 17.7243L66.9745 17.6622L66.9735 17.664L67.0844 17.7243ZM67.0844 12.0814L66.9735 12.1417L66.9752 12.1446L67.0844 12.0814ZM65.1943 10.0818L65.1272 10.1886L65.1283 10.1893L65.1943 10.0818ZM59.7432 10.0818L59.6783 9.97355L59.6772 9.9742L59.7432 10.0818ZM57.8258 12.0814L57.935 12.1446L57.9356 12.1435L57.8258 12.0814ZM57.8258 17.7243L57.9356 17.6622L57.8258 17.7243ZM59.7432 19.7239L59.6772 19.8315L59.6801 19.8332L59.7432 19.7239ZM68.0432 22.0797L67.9536 22.1692L67.9616 22.176L68.0432 22.0797ZM67.7145 16.7108L67.5912 16.6838L67.5883 16.6971V16.7108H67.7145ZM68.2349 14.3276L68.2727 14.2072L68.1411 14.1659L68.1116 14.3007L68.2349 14.3276ZM70.0702 14.9029H70.1964V14.8102L70.108 14.7824L70.0702 14.9029ZM69.7415 22.0797L69.8269 22.1728L69.8307 22.1689L69.7415 22.0797ZM62.1538 22.3918C60.7867 22.3918 59.5677 22.0683 58.4933 21.4236L58.3635 21.6401C59.4805 22.3103 60.745 22.6442 62.1538 22.6442V22.3918ZM58.4946 21.4244C57.4178 20.7604 56.5653 19.8633 55.9364 18.7313L55.7158 18.8539C56.3652 20.0228 57.2476 20.952 58.3621 21.6393L58.4946 21.4244ZM55.9364 18.7313C55.3087 17.6013 54.9936 16.3262 54.9936 14.9029H54.7412C54.7412 16.3649 55.0652 17.6829 55.7158 18.8539L55.9364 18.7313ZM54.9936 14.9029C54.9936 13.4616 55.3176 12.1778 55.9631 11.0483L55.7439 10.9231C55.0745 12.0946 54.7412 13.4223 54.7412 14.9029H54.9936ZM55.9623 11.0496C56.6269 9.918 57.5241 9.02984 58.6554 8.38343L58.5301 8.16429C57.3604 8.83271 56.4314 9.75247 55.7447 10.9218L55.9623 11.0496ZM58.6567 8.38268C59.7862 7.71929 61.0604 7.38653 62.4825 7.38653V7.13414C61.0192 7.13414 59.7003 7.47706 58.5288 8.16504L58.6567 8.38268ZM62.4825 7.38653C63.886 7.38653 65.1417 7.71915 66.2528 8.38223L66.3821 8.16549C65.2288 7.4772 63.9278 7.13414 62.4825 7.13414V7.38653ZM66.2548 8.38343C67.3857 9.02967 68.2735 9.91741 68.9197 11.0483L69.1389 10.9231C68.4703 9.75306 67.5501 8.83289 66.3801 8.16429L66.2548 8.38343ZM68.9205 11.0496C69.584 12.1794 69.926 13.4633 69.944 14.9044L70.1964 14.9013C70.1779 13.4205 69.8259 12.093 69.1381 10.9218L68.9205 11.0496ZM70.0138 14.79L69.0824 15.2556L69.1953 15.4814L70.1267 15.0157L70.0138 14.79ZM69.0127 15.3685C69.0127 16.6997 68.7071 17.8921 68.0982 18.9487L68.3169 19.0747C68.9498 17.9765 69.2651 16.74 69.2651 15.3685H69.0127ZM68.0974 18.9501C67.5055 20.0084 66.6901 20.8507 65.6496 21.4786L65.78 21.6947C66.8579 21.0442 67.7043 20.1699 68.3177 19.0733L68.0974 18.9501ZM65.6502 21.4782C64.6307 22.0863 63.4665 22.3918 62.1538 22.3918V22.6442C63.5073 22.6442 64.7171 22.3287 65.7794 21.695L65.6502 21.4782ZM62.4825 20.5623C63.5255 20.5623 64.4525 20.32 65.2596 19.8319L65.129 19.6159C64.3657 20.0775 63.4848 20.3099 62.4825 20.3099V20.5623ZM65.2603 19.8315C66.083 19.3267 66.7284 18.6437 67.1953 17.7845L66.9735 17.664C66.5274 18.4849 65.9127 19.135 65.1283 19.6164L65.2603 19.8315ZM67.1943 17.7864C67.6806 16.9259 67.9228 15.9638 67.9228 14.9029H67.6704C67.6704 15.9238 67.4378 16.8426 66.9746 17.6622L67.1943 17.7864ZM67.9228 14.9029C67.9228 13.8241 67.6808 12.8614 67.1937 12.0183L66.9752 12.1446C67.4376 12.945 67.6704 13.8632 67.6704 14.9029H67.9228ZM67.1953 12.0212C66.7284 11.162 66.083 10.479 65.2603 9.9742L65.1283 10.1893C65.9127 10.6707 66.5274 11.3208 66.9735 12.1417L67.1953 12.0212ZM65.2615 9.97489C64.4541 9.46792 63.5264 9.21597 62.4825 9.21597V9.46837C63.4839 9.46837 64.3641 9.70948 65.1272 10.1886L65.2615 9.97489ZM62.4825 9.21597C61.4564 9.21597 60.5207 9.46814 59.6783 9.97355L59.8082 10.19C60.6094 9.70926 61.4998 9.46837 62.4825 9.46837V9.21597ZM59.6772 9.9742C58.855 10.4787 58.201 11.1611 57.7159 12.0193L57.9356 12.1435C58.4002 11.3216 59.0244 10.6709 59.8092 10.1893L59.6772 9.9742ZM57.7165 12.0183C57.2293 12.8614 56.9873 13.8241 56.9873 14.9029H57.2397C57.2397 13.8632 57.4726 12.945 57.935 12.1446L57.7165 12.0183ZM56.9873 14.9029C56.9873 15.9638 57.2295 16.9259 57.7159 17.7864L57.9356 17.6622C57.4724 16.8426 57.2397 15.9238 57.2397 14.9029H56.9873ZM57.7159 17.7864C58.201 18.6446 58.855 19.327 59.6772 19.8315L59.8092 19.6164C59.0244 19.1348 58.4002 18.4841 57.9356 17.6622L57.7159 17.7864ZM59.6801 19.8332C60.5222 20.3198 61.4573 20.5623 62.4825 20.5623V20.3099C61.4989 20.3099 60.6078 20.0777 59.8064 19.6147L59.6801 19.8332ZM68.8923 22.2548C68.5916 22.2548 68.3379 22.1638 68.1247 21.9834L67.9616 22.176C68.2232 22.3974 68.5356 22.5072 68.8923 22.5072V22.2548ZM68.1324 21.9905C67.9399 21.7979 67.8407 21.5484 67.8407 21.2305H67.5883C67.5883 21.6066 67.7082 21.9232 67.9539 22.1689L68.1324 21.9905ZM67.8407 21.2305V16.7108H67.5883V21.2305H67.8407ZM67.8378 16.7377L68.3582 14.3545L68.1116 14.3007L67.5912 16.6838L67.8378 16.7377ZM68.1972 14.448L70.0325 15.0233L70.108 14.7824L68.2727 14.2072L68.1972 14.448ZM69.944 14.9029V21.2305H70.1964V14.9029H69.944ZM69.944 21.2305C69.944 21.5484 69.8448 21.7979 69.6523 21.9905L69.8307 22.1689C70.0765 21.9232 70.1964 21.6066 70.1964 21.2305H69.944ZM69.6562 21.9867C69.4642 22.1627 69.2134 22.2548 68.8923 22.2548V22.5072C69.2653 22.5072 69.5805 22.3985 69.8268 22.1727L69.6562 21.9867ZM77.8985 21.5318L77.8338 21.6402L77.8351 21.641L77.8985 21.5318ZM75.1866 18.82L75.077 18.8826L75.0783 18.8847L75.1866 18.82ZM74.1731 14.9576H74.0469L74.0469 14.9593L74.1731 14.9576ZM74.4744 1.31615L74.3852 1.22692V1.22692L74.4744 1.31615ZM76.1728 1.31615L76.0794 1.40175L76.0875 1.40918L76.1728 1.31615ZM76.5015 9.99959H76.3753V10.3851L76.6032 10.0742L76.5015 9.99959ZM78.8572 8.02732L78.9145 8.13978L78.9162 8.13891L78.8572 8.02732ZM85.8149 8.27386L85.7487 8.38128L85.75 8.38207L85.8149 8.27386ZM88.3898 10.9857L88.2788 11.0457L88.2795 11.047L88.3898 10.9857ZM88.335 18.7926L88.2262 18.7287L88.2255 18.73L88.335 18.7926ZM85.6232 21.5318L85.6866 21.641L85.6871 21.6407L85.6232 21.5318ZM84.4727 19.6965L84.4078 19.5883L84.4067 19.589L84.4727 19.6965ZM86.3902 17.7243L86.2803 17.6622L86.2799 17.663L86.3902 17.7243ZM86.3902 12.054L86.2793 12.1143L86.2803 12.1161L86.3902 12.054ZM84.4727 10.0818L84.4067 10.1894L84.4096 10.191L84.4727 10.0818ZM79.0216 10.0818L79.0858 10.1904L79.0865 10.19L79.0216 10.0818ZM77.1315 12.054L77.2424 12.1143L77.1315 12.054ZM77.1315 17.7243L77.0206 17.7845L77.0212 17.7856L77.1315 17.7243ZM79.0216 19.6965L78.9556 19.8041L78.9567 19.8048L79.0216 19.6965ZM81.7334 22.3918C80.3293 22.3918 79.0732 22.068 77.9619 21.4227L77.8351 21.641C78.9883 22.3105 80.2888 22.6442 81.7334 22.6442V22.3918ZM77.9632 21.4235C76.8489 20.7585 75.96 19.8696 75.295 18.7553L75.0783 18.8847C75.7647 20.0348 76.6836 20.9538 77.8338 21.6402L77.9632 21.4235ZM75.2962 18.7574C74.6502 17.6269 74.3173 16.3607 74.2993 14.956L74.0469 14.9593C74.0654 16.4034 74.4082 17.7121 75.0771 18.8826L75.2962 18.7574ZM74.2993 14.9576V2.16532H74.0469V14.9576H74.2993ZM74.2993 2.16532C74.2993 1.82356 74.3927 1.57636 74.5637 1.40539L74.3852 1.22692C74.1544 1.45771 74.0469 1.77662 74.0469 2.16532H74.2993ZM74.5637 1.40539C74.7549 1.21411 75.0128 1.11364 75.351 1.11364V0.861247C74.9587 0.861247 74.6322 0.979923 74.3852 1.22692L74.5637 1.40539ZM75.351 1.11364C75.6691 1.11364 75.9068 1.21279 76.0797 1.40143L76.2658 1.23088C76.037 0.981245 75.7269 0.861247 75.351 0.861247V1.11364ZM76.0875 1.40918C76.2748 1.58085 76.3753 1.82675 76.3753 2.16532H76.6277C76.6277 1.77343 76.509 1.45322 76.258 1.22313L76.0875 1.40918ZM76.3753 2.16532V9.99959H76.6277V2.16532H76.3753ZM76.6032 10.0742C77.1934 9.26939 77.963 8.62449 78.9145 8.13977L78.7999 7.91488C77.8157 8.41629 77.0148 9.08623 76.3997 9.92496L76.6032 10.0742ZM78.9162 8.13891C79.8644 7.63798 80.9213 7.38653 82.0895 7.38653V7.13414C80.8838 7.13414 79.7858 7.39402 78.7983 7.91574L78.9162 8.13891ZM82.0895 7.38653C83.4559 7.38653 84.6745 7.71883 85.7487 8.38127L85.8812 8.16644C84.764 7.47752 83.4989 7.13414 82.0895 7.13414V7.38653ZM85.75 8.38207C86.8258 9.02755 87.6684 9.91463 88.2788 11.0457L88.5009 10.9258C87.8695 9.75584 86.9955 8.835 85.8799 8.16564L85.75 8.38207ZM88.2795 11.047C88.9073 12.177 89.2224 13.4521 89.2224 14.8755H89.4748C89.4748 13.4135 89.1507 12.0954 88.5001 10.9244L88.2795 11.047ZM89.2224 14.8755C89.2224 16.3161 88.8895 17.5994 88.2262 18.7287L88.4439 18.8565C89.132 17.6848 89.4748 16.3567 89.4748 14.8755H89.2224ZM88.2255 18.73C87.5791 19.8612 86.6909 20.7584 85.5593 21.423L85.6871 21.6407C86.8564 20.9539 87.7762 20.025 88.4446 18.8552L88.2255 18.73ZM85.5598 21.4227C84.449 22.0677 83.1748 22.3918 81.7334 22.3918V22.6442C83.214 22.6442 84.5329 22.3108 85.6866 21.641L85.5598 21.4227ZM81.7334 20.5623C82.7774 20.5623 83.7137 20.3104 84.5387 19.8041L84.4067 19.589C83.6247 20.0688 82.7348 20.3099 81.7334 20.3099V20.5623ZM84.5376 19.8048C85.378 19.3005 86.033 18.6271 86.5005 17.7856L86.2799 17.663C85.8343 18.465 85.211 19.1064 84.4078 19.5883L84.5376 19.8048ZM86.5 17.7864C86.9866 16.9256 87.2286 15.9542 87.2286 14.8755H86.9762C86.9762 15.9151 86.7434 16.8429 86.2803 17.6622L86.5 17.7864ZM87.2286 14.8755C87.2286 13.8145 86.9864 12.8524 86.5 11.9919L86.2803 12.1161C86.7436 12.9357 86.9762 13.8545 86.9762 14.8755H87.2286ZM86.5011 11.9938C86.0335 11.1335 85.3779 10.459 84.5358 9.97249L84.4096 10.191C85.2111 10.6541 85.8338 11.2945 86.2793 12.1143L86.5011 11.9938ZM84.5387 9.9742C83.7137 9.46792 82.7774 9.21597 81.7334 9.21597V9.46837C82.7348 9.46837 83.6247 9.70948 84.4067 10.1893L84.5387 9.9742ZM81.7334 9.21597C80.7251 9.21597 79.7986 9.46836 78.9567 9.97355L79.0865 10.19C79.8881 9.70903 80.7695 9.46837 81.7334 9.46837V9.21597ZM78.9574 9.97312C78.1337 10.4598 77.4878 11.1342 77.0206 11.9938L77.2424 12.1143C77.6883 11.2938 78.3024 10.6533 79.0858 10.1904L78.9574 9.97312ZM77.0206 11.9938C76.5531 12.8539 76.3205 13.8154 76.3205 14.8755H76.5729C76.5729 13.8537 76.7968 12.9342 77.2424 12.1143L77.0206 11.9938ZM76.3205 14.8755C76.3205 15.9534 76.553 16.9241 77.0206 17.7845L77.2424 17.664C76.7969 16.8444 76.5729 15.9159 76.5729 14.8755H76.3205ZM77.0212 17.7856C77.4883 18.6264 78.1336 19.2997 78.9556 19.8041L79.0876 19.589C78.3025 19.1072 77.6878 18.4657 77.2418 17.663L77.0212 17.7856ZM78.9567 19.8048C79.7986 20.3099 80.7251 20.5623 81.7334 20.5623V20.3099C80.7695 20.3099 79.8881 20.0693 79.0865 19.5883L78.9567 19.8048Z" fill="#9A54BC" mask="url(#path-1-outside-1_1_1126)"/>
</g>
<defs>
<filter id="filter0_d_1_1126" x="0.824292" y="0.340526" width="89.1211" height="23.135" filterUnits="userSpaceOnUse" color-interpolation-filters="sRGB">
<feFlood flood-opacity="0" result="BackgroundImageFix"/>
<feColorMatrix in="SourceAlpha" type="matrix" values="0 0 0 0 0 0 0 0 0 0 0 0 0 0 0 0 0 0 127 0" result="hardAlpha"/>
<feOffset dy="0.223796"/>
<feGaussianBlur stdDeviation="0.298395"/>
<feComposite in2="hardAlpha" operator="out"/>
<feColorMatrix type="matrix" values="0 0 0 0 0.721569 0 0 0 0 0.847059 0 0 0 0 0.94902 0 0 0 0.25 0"/>
<feBlend mode="normal" in2="BackgroundImageFix" result="effect1_dropShadow_1_1126"/>
<feBlend mode="normal" in="SourceGraphic" in2="effect1_dropShadow_1_1126" result="shape"/>
</filter>
</defs>
</svg>
