<svg width="35" height="49" viewBox="0 0 35 49" fill="none" xmlns="http://www.w3.org/2000/svg">
<path d="M28.8696 4.28241H26.548C25.7111 4.28241 25.0327 4.96084 25.0327 5.79772V14.2362C25.0327 15.0731 25.7111 15.7516 26.548 15.7516H28.8696C29.7065 15.7516 30.3849 15.0731 30.3849 14.2362V5.79772C30.3849 4.96084 29.7065 4.28241 28.8696 4.28241Z" fill="#41529F"/>
<path d="M20.1888 47.3306V39.3363H30.0296L21.4941 47.872C21.3872 47.979 21.2508 48.0518 21.1024 48.0813C20.954 48.1107 20.8002 48.0956 20.6605 48.0377C20.5207 47.9797 20.4013 47.8815 20.3173 47.7556C20.2334 47.6299 20.1886 47.4819 20.1888 47.3306Z" fill="#41529F"/>
<path d="M30.5568 38.8395H20.1888V39.7978H29.5488L30.5568 38.8395Z" fill="#324293"/>
<path d="M32.6882 15.1701L18.5263 1.00685C18.1433 0.625749 17.625 0.411804 17.0847 0.411804C16.5444 0.411804 16.0261 0.625749 15.6431 1.00685L1.48135 15.1701C0.617165 16.1312 0.10796 17.3592 0.0383911 18.6499V21.1446C7.77543 26.901 17.1656 30.0026 26.8091 29.9871C29.2616 29.9876 31.7101 29.7882 34.1303 29.3911V18.6499C34.06 17.3595 33.5513 16.1319 32.6882 15.1701Z" fill="#41529F"/>
<path d="M26.8096 32.281C17.1661 32.2963 7.77594 29.1946 0.0388489 23.4385V36.9148C0.0405989 37.455 0.255963 37.9725 0.63793 38.3544C1.01989 38.7365 1.53745 38.9518 2.07762 38.9535H32.0922C32.6323 38.9518 33.1498 38.7363 33.5319 38.3544C33.9137 37.9723 34.129 37.4548 34.1308 36.9148V31.685C31.7106 32.0821 29.2621 32.2814 26.8096 32.281Z" fill="#41529F"/>
</svg>
