<svg width="49" height="49" viewBox="0 0 49 49" fill="none" xmlns="http://www.w3.org/2000/svg">
<path d="M30.2186 11.4154C24.1416 11.4154 11.9688 6.48907 11.9688 0.411804H11.8788C11.8788 5.27576 13.8109 9.9405 17.2502 13.3799C20.6895 16.8193 25.3541 18.7516 30.2181 18.7518C33.1365 18.7518 35.9354 19.9111 37.9991 21.9747C40.0628 24.0383 41.2221 26.8373 41.2221 29.7556C41.2228 32.674 40.064 35.4734 38.0007 37.5373C35.9375 39.6015 33.1388 40.7612 30.2204 40.7619C27.3018 40.7624 24.5027 39.6035 22.4386 37.5403C20.3746 35.477 19.2146 32.6783 19.2141 29.76C19.214 27.3515 18.7396 24.9666 17.8178 22.7415C16.8961 20.5164 15.5451 18.4947 13.842 16.7917C12.1389 15.0887 10.1171 13.7378 7.89191 12.8162C5.66676 11.8946 3.28184 11.4203 0.873383 11.4204V11.5097C6.9495 11.5097 11.8758 23.6773 11.8781 29.7554H11.877C11.8769 33.3828 12.9525 36.9286 14.9676 39.9447C16.9828 42.9607 19.8471 45.3114 23.1982 46.6995C26.5494 48.0879 30.2369 48.4512 33.7947 47.7435C37.3522 47.0361 40.6201 45.2894 43.1852 42.7248C45.7501 40.1599 47.4969 36.8922 48.2049 33.3344C48.9128 29.7769 48.5497 26.0894 47.1618 22.7381C45.7739 19.3869 43.4234 16.5224 40.4076 14.507C37.3916 12.4915 33.8458 11.4157 30.2186 11.4154Z" fill="url(#paint0_linear_1_904)"/>
<defs>
<linearGradient id="paint0_linear_1_904" x1="38.8776" y1="41.6585" x2="11.1731" y2="3.60664" gradientUnits="userSpaceOnUse">
<stop offset="0.295" stop-color="#E73959"/>
<stop offset="0.384" stop-color="#E73D58"/>
<stop offset="0.477" stop-color="#E74955"/>
<stop offset="0.571" stop-color="#E95E51"/>
<stop offset="0.666" stop-color="#EA7B4B"/>
<stop offset="0.761" stop-color="#EDA044"/>
<stop offset="0.857" stop-color="#EFCE3B"/>
<stop offset="0.868" stop-color="#F0D43A"/>
</linearGradient>
</defs>
</svg>
