<svg width="45" height="45" viewBox="0 0 45 45" fill="none" xmlns="http://www.w3.org/2000/svg">
<path d="M4.49269 19.5314C4.31286 18.8605 4.31283 18.154 4.49262 17.483C4.6724 16.812 5.02566 16.2001 5.51688 15.709L15.7528 5.47302C16.244 4.9818 16.8559 4.62854 17.5268 4.44875C18.1978 4.26897 18.9043 4.26899 19.5753 4.44883L29.1536 7.01532C29.2533 5.70313 29.7101 4.44321 30.4747 3.37203L18.9383 0.281192C18.1103 0.0593409 17.2384 0.0593454 16.4104 0.281206C15.5823 0.503068 14.8273 0.93897 14.2211 1.5451L1.5892 14.177C0.983064 14.7832 0.547164 15.5382 0.325304 16.3663C0.103443 17.1943 0.103439 18.0662 0.32529 18.8942L3.53503 30.873C4.5843 30.0717 5.83353 29.574 7.14637 29.4345L4.49269 19.5314Z" fill="#18CDCA"/>
<path d="M37.3613 14.7422L40.1036 24.9762C40.2835 25.6473 40.2833 26.3538 40.1036 27.0246C39.9237 27.6957 39.5704 28.3075 39.0792 28.7987L28.8433 39.0349C28.3521 39.5261 27.7403 39.8792 27.0692 40.0591C26.3983 40.2387 25.6916 40.2387 25.0208 40.0591L15.1177 37.4054C14.9782 38.7183 14.4806 39.9676 13.6792 41.0167L25.658 44.2265C26.486 44.4484 27.3579 44.4484 28.1858 44.2265C29.014 44.0045 29.769 43.5688 30.3752 42.9626L43.0071 30.3307C43.6134 29.7244 44.0491 28.9695 44.271 28.1413C44.493 27.3133 44.493 26.4414 44.271 25.6135L40.9402 13.1862C39.9132 14.0245 38.6747 14.563 37.3613 14.7422Z" fill="#18CDCA"/>
<path d="M3.82301 32.525C3.01175 33.3361 2.45927 34.3699 2.23544 35.495C2.01162 36.6203 2.12649 37.7867 2.56554 38.8467C3.00457 39.9065 3.74807 40.8125 4.70198 41.45C5.65592 42.0872 6.77742 42.4275 7.92471 42.4275C9.07198 42.4275 10.1935 42.0872 11.1474 41.45C12.1014 40.8125 12.8449 39.9065 13.2839 38.8467C13.7229 37.7867 13.8378 36.6203 13.614 35.495C13.3902 34.3699 12.8377 33.3361 12.0264 32.525C10.9377 31.4388 9.46261 30.8287 7.92471 30.8287C6.38681 30.8287 4.9117 31.4388 3.82301 32.525Z" fill="#4F80E1"/>
<path d="M32.2691 3.47991C31.458 4.29114 30.9053 5.32473 30.6817 6.44998C30.4578 7.5752 30.5726 8.74154 31.0117 9.8015C31.4508 10.8614 32.1942 11.7674 33.148 12.4048C34.1021 13.0422 35.2236 13.3824 36.3707 13.3824C37.5181 13.3824 38.6396 13.0422 39.5937 12.4048C40.5475 11.7674 41.2909 10.8614 41.73 9.8015C42.1691 8.74154 42.2839 7.5752 42.06 6.44998C41.8364 5.32473 41.2837 4.29114 40.4726 3.47991C39.384 2.39367 37.9087 1.78363 36.3707 1.78363C34.833 1.78363 33.3577 2.39367 32.2691 3.47991Z" fill="#4F80E1"/>
<path d="M25.7029 37.6302C25.4699 37.6302 25.2381 37.5997 25.0131 37.5394L15.9481 35.1103C15.6458 33.4962 14.8627 32.011 13.7016 30.8499C12.5404 29.6888 11.0553 28.9056 9.44118 28.6034L7.01232 19.5391C6.89191 19.087 6.89225 18.6112 7.01336 18.1593C7.13446 17.7073 7.37207 17.2951 7.70241 16.9637L17.0066 7.65928C17.3376 7.32829 17.7498 7.09028 18.202 6.96913C18.6541 6.848 19.1302 6.84802 19.5822 6.9692L28.3931 9.33008C28.7426 10.9342 29.5684 12.3954 30.7624 13.5222C31.9564 14.649 33.4629 15.3889 35.0845 15.6451L37.5825 24.9699C37.7029 25.4222 37.7026 25.8981 37.5813 26.3499C37.4603 26.8019 37.2227 27.2141 36.8922 27.5456L27.588 36.8498C27.3411 37.0979 27.0471 37.2949 26.7235 37.4287C26.4 37.5627 26.0531 37.6311 25.7029 37.6302Z" fill="#4F80E1"/>
</svg>
